<?xml version="1.0" standalone="no"?>
<!DOCTYPE svg PUBLIC "-//W3C//DTD SVG 20010904//EN"
 "http://www.w3.org/TR/2001/REC-SVG-20010904/DTD/svg10.dtd">
<svg version="1.0" xmlns="http://www.w3.org/2000/svg"
 width="16.000000pt" height="16.000000pt" viewBox="0 0 16.000000 16.000000"
 preserveAspectRatio="xMidYMid meet">
<metadata>
Created by potrace 1.11, written by Peter Selinger 2001-2013
</metadata>
<g transform="translate(0.000000,16.000000) scale(0.012500,-0.012500)"
fill="#000000" stroke="none">
<path d="M485 1260 c-182 -49 -333 -170 -413 -331 -54 -110 -73 -200 -67 -321
12 -268 182 -489 445 -579 96 -33 277 -33 375 -1 171 57 309 173 383 324 55
110 71 187 67 313 -6 170 -67 308 -190 430 -76 76 -190 141 -290 165 -84 21
-230 21 -310 0z m216 -83 c43 -29 58 -59 54 -109 -2 -29 -11 -49 -33 -71 -27
-26 -39 -31 -82 -31 -44 0 -55 5 -83 32 -28 28 -32 39 -31 82 1 99 95 151 175
97z m-369 -224 c88 -80 33 -217 -84 -208 -61 4 -103 50 -103 113 0 50 23 91
60 109 30 15 104 7 127 -14z m736 13 c15 -8 34 -22 43 -32 80 -92 -27 -233
-137 -180 -92 43 -92 172 -1 211 41 18 62 18 95 1z m-379 -176 c112 -32 146
-175 61 -260 -66 -66 -154 -66 -220 0 -120 120 -5 307 159 260z m-371 -270
c99 -61 65 -206 -51 -215 -40 -3 -50 1 -84 30 -35 30 -38 37 -38 83 0 40 5 56
25 77 45 49 95 57 148 25z m785 -19 c33 -33 45 -93 25 -131 -22 -40 -73 -69
-119 -66 -111 8 -144 156 -47 216 44 28 102 20 141 -19z m-415 -195 c82 -42
93 -137 23 -200 -16 -14 -36 -20 -72 -20 -43 0 -54 5 -81 32 -27 27 -32 39
-32 81 0 53 12 74 59 103 36 22 67 23 103 4z"/>
</g>
</svg>
